<svg xmlns="http://www.w3.org/2000/svg" xmlns:xlink="http://www.w3.org/1999/xlink" width="26" height="25" viewBox="0 0 26 25"><defs><path id="z1yga" d="M1123.53 748c6.88 0 12.52 5.63 12.52 12.5 0 6.88-5.64 12.5-12.52 12.5a12.55 12.55 0 0 1-12.53-12.5c0-6.88 5.64-12.5 12.53-12.5zm4.28 18.91c3.33-.1 4.6-2.29 4.6-2.29 0-4.84-2.16-8.77-2.16-8.77-2.17-1.63-4.23-1.58-4.23-1.58l-.21.24c2.56.78 3.75 1.9 3.75 1.9a12.27 12.27 0 0 0-7.58-1.4c-.09 0-.16 0-.25.02-.53.05-1.81.24-3.42.95-.56.26-.9.44-.9.44s1.26-1.2 3.97-1.97l-.15-.18s-2.06-.05-4.23 1.58c0 0-2.17 3.93-2.17 8.77 0 0 1.26 2.19 4.6 2.3l1-1.26c-1.91-.57-2.63-1.77-2.63-1.77a5.29 5.29 0 0 0 .48.3l.13.07a12.64 12.64 0 0 0 3.31 1.16 10.55 10.55 0 0 0 6.09-.63c.53-.2 1.11-.48 1.73-.89 0 0-.75 1.24-2.72 1.8.45.57.99 1.21.99 1.21zm-5.47-5.36c0 .92-.67 1.67-1.53 1.67-.85 0-1.54-.75-1.54-1.67 0-.92.68-1.67 1.54-1.67s1.55.75 1.53 1.67zm5.5 0c0 .92-.68 1.67-1.54 1.67-.84 0-1.53-.75-1.53-1.67 0-.92.68-1.67 1.53-1.67.86 0 1.54.75 1.54 1.67z"/></defs><g><g  transform="translate(-1111 -748)"><g ><g ><use fill="#6b7c93" xlink:href="#z1yga"/></g></g></g></g></svg>