<svg xmlns="http://www.w3.org/2000/svg" xmlns:xlink="http://www.w3.org/1999/xlink" width="26" height="25" viewBox="0 0 26 25"><defs><path id="fl8ma" d="M1163.53 748c6.88 0 12.52 5.63 12.52 12.5 0 6.88-5.64 12.5-12.52 12.5a12.55 12.55 0 0 1-12.53-12.5c0-6.88 5.64-12.5 12.53-12.5zm3.28 8.36v-2.03c-.23 0-.94-.08-1.72-.08-1.72 0-2.9 1.02-2.82 2.97v1.64h-1.95v2.19h1.95v5.7h2.27v-5.7h1.88l.31-2.2h-2.19v-1.4c0-.62.16-1.1 1.1-1.1z"/></defs><g><g  transform="translate(-1151 -748)"><g ><g ><use fill="#6b7c93" xlink:href="#fl8ma"/></g></g></g></g></svg>