<svg xmlns="http://www.w3.org/2000/svg" xmlns:xlink="http://www.w3.org/1999/xlink" width="26" height="25" viewBox="0 0 26 25"><defs><path id="zjxba" d="M1041.53 748c6.88 0 12.52 5.63 12.52 12.5 0 5.58-3.71 10.33-8.79 11.93-.05.01-1.73.4-3.01.53 1.06-.13 1.83-.5 2.8-.5-.24-.12-.3-.4-.3-.63l.01-3.28c0-1.12-.38-1.85-.81-2.22 2.67-.3 5.47-1.31 5.47-5.92 0-1.3-.47-2.37-1.23-3.21a4.3 4.3 0 0 0-.12-3.17s-1-.32-3.3 1.23a11.5 11.5 0 0 0-6 0c-2.28-1.55-3.3-1.23-3.3-1.23a4.3 4.3 0 0 0-.1 3.17 4.63 4.63 0 0 0-1.24 3.21c0 4.6 2.8 5.63 5.46 5.93-.35.3-.66.83-.76 1.6-.69.3-2.42.84-3.5-1 0 0-.62-1.15-1.83-1.23 0 0-1.17-.02-.08.73 0 0 .79.37 1.33 1.75 0 0 .7 2.33 4.04 1.6l.01 2.04c0 .32-.29.66-.78.67a12.55 12.55 0 0 1-9.02-12c0-6.87 5.64-12.5 12.53-12.5zm0 25c-1.22 0-2.4-.17-3.5-.5 1.16 0 2.03.5 3.5.5zm-3.53-.5h0zm.01 0h0z"/></defs><g><g  transform="translate(-1029 -748)"><g ><g ><use fill="#6b7c93" xlink:href="#zjxba"/></g></g></g></g></svg>