<svg xmlns="http://www.w3.org/2000/svg" xmlns:xlink="http://www.w3.org/1999/xlink" width="26" height="25" viewBox="0 0 26 25"><defs><path id="izpia" d="M1284.1 760.5a2.42 2.42 0 1 1 4.85 0 2.42 2.42 0 0 1-4.85 0z"/><path id="izpib" d="M1289.34 758.07h1.73c.15 0 .3-.15.3-.3v-1.73c0-.15-.15-.31-.3-.31h-1.73c-.15 0-.31.16-.31.31v1.72c-.08.16.08.31.31.31z"/><path id="izpic" d="M1286.53 748c6.88 0 12.52 5.63 12.52 12.5 0 6.88-5.64 12.5-12.52 12.5a12.55 12.55 0 0 1-12.53-12.5c0-6.88 5.64-12.5 12.53-12.5zm6.26 17.27v-9.54c0-.86-.7-1.48-1.49-1.48h-9.55c-.78 0-1.49.63-1.49 1.48v9.54c0 .86.7 1.48 1.49 1.48h9.55c.78 0 1.49-.7 1.49-1.48z"/><path id="izpid" d="M1290.36 760.5a3.84 3.84 0 0 1-7.67 0c0-.32.08-.7.15-1.02h-1.17v5.47c0 .15.16.31.31.31h9c.16 0 .32-.15.32-.31v-5.47h-1.18c.16.31.24.7.24 1.02z"/></defs><g><g  transform="translate(-1274 -748)"><g ><g ><use fill="#6b7c93" xlink:href="#izpia"/></g><g ><use fill="#6b7c93" xlink:href="#izpib"/></g><g ><use fill="#6b7c93" xlink:href="#izpic"/></g><g ><use fill="#6b7c93" xlink:href="#izpid"/></g></g></g></g></svg>