<svg width="26px" height="25px" viewBox="0 0 26 25" version="1.1" xmlns="http://www.w3.org/2000/svg" xmlns:xlink="http://www.w3.org/1999/xlink">
    <g stroke="none" stroke-width="1" fill="none" fill-rule="evenodd" >
        <g transform="translate(-1029.000000, -331.000000)">
            <g>
                <g transform="translate(989.000000, 331.000000)">
                    <g transform="translate(40.000000, 0.000000)">
                        <g>
                            <path d="M12.5253036,0 C5.63638664,0 0,5.625 0,12.5 C0,19.375 5.63638664,25 12.5253036,25 C19.4142206,25 25.0506073,19.375 25.0506073,12.5 C25.0506073,5.625 19.4142206,0 12.5253036,0 L12.5253036,0 Z" fill="#6B7C93"></path>
                            <path style="fill: #fff" d="M17.8156681,6.00130407 C18.0224448,5.99193511 18.2460522,6.03175302 18.4720645,6.16291839 C18.695672,6.29174167 18.8808093,6.5329924 18.9529411,6.79063836 C19.0250723,7.04828492 19.0082421,7.31295774 18.9433236,7.59636847 L16.6447335,19.0663112 L16.6230942,19.1201829 C16.6230942,19.1201829 16.4932572,19.4551231 16.1590478,19.7174539 C15.8272432,19.9774425 15.1996994,20.1250031 14.5793683,19.8603303 L14.5120456,19.8322234 L11.537824,17.6094391 L9.763389,19.1834235 L9.7417497,19.1998193 C9.7417497,19.1998193 9.35945265,19.4879142 8.88338512,19.3473799 C8.8521283,19.3426957 8.83529746,19.3403536 8.81125333,19.3333267 C8.80404064,19.3309846 8.79682734,19.3239578 8.7872098,19.3216157 L8.81846663,19.328642 C8.80404064,19.3262999 8.79201826,19.3239578 8.7799965,19.3169309 C8.74152637,19.3028778 8.70305625,19.286482 8.66699035,19.265402 C8.5756241,19.2091882 8.49868384,19.1389208 8.43376535,19.0546002 C8.2991199,18.8906438 8.19092282,18.6751578 8.08032089,18.3308486 C7.89277933,17.7546576 7.11135501,15.2531466 6.97670956,14.8315437 L3.9712305,13.8454613 L3.96642204,13.8454613 C3.96642204,13.8454613 3.76685809,13.7775365 3.55767662,13.6323174 C3.35089999,13.489441 3.06237403,13.2294524 3.00707306,12.7961384 C2.97341139,12.5408345 3.06477826,12.2925569 3.17778441,12.1309426 C3.29078995,11.9693283 3.42062694,11.8662698 3.53844155,11.7913181 C3.76926232,11.6367301 3.99046556,11.5664632 3.99046556,11.5664632 L3.95199543,11.5805163 C3.95199543,11.5805163 7.15703782,10.2641785 10.4173812,8.92676005 C12.0499574,8.25688008 13.6945554,7.58231534 14.9616654,7.06233805 C16.2287754,6.54470345 17.0630958,6.2027363 17.2386162,6.13481153 L17.2410204,6.13481153 C17.414136,6.06922884 17.6088909,6.01067302 17.8156681,6.00130407 Z M17.7531539,7.23097924 C17.717088,7.23097924 17.7411321,7.23097924 17.6906402,7.24971715 C17.6377435,7.27079714 16.7024387,7.65024011 15.4377329,8.16787471 C14.1730277,8.68785201 12.5284298,9.36241675 10.8958535,10.0322967 C7.63551019,11.3697152 4.42806357,12.686053 4.42806357,12.686053 L4.40882851,12.6930799 L4.38959345,12.7024488 C4.38959345,12.7024488 4.37276261,12.7094757 4.37035838,12.7094757 C4.37276261,12.7094757 4.37757107,12.7118178 4.37997591,12.7118178 L4.37997591,12.7141599 L7.97212381,13.8923061 L7.97452804,13.9040171 L15.4689903,9.38115466 C15.4689903,9.38115466 15.8560958,9.18909079 15.839265,9.46079048 C15.839265,9.46079048 15.9210143,9.50763525 15.675767,9.73014808 C15.4305202,9.9526609 9.73213217,15.126666 9.73213217,15.126666 L9.27049063,17.9982504 L11.468097,16.0471657 L15.1059283,18.7641626 C15.3054923,18.8414563 15.3439624,18.8180342 15.3920501,18.7805584 C15.4377329,18.7454247 15.4545637,18.7102909 15.4641813,18.6938957 L17.7411321,7.34340669 L17.7411321,7.33637983 C17.7579629,7.26377088 17.7507496,7.26845505 17.7531539,7.23097924 Z" fill="#FFFFFF" fill-rule="nonzero"></path>
                        </g>
                    </g>
                </g>
            </g>
        </g>
    </g>
</svg>