<svg xmlns="http://www.w3.org/2000/svg" xmlns:xlink="http://www.w3.org/1999/xlink" width="26" height="25" viewBox="0 0 26 25"><defs><path id="ztoya" d="M1204.53 748c6.88 0 12.52 5.63 12.52 12.5 0 6.88-5.64 12.5-12.52 12.5a12.55 12.55 0 0 1-12.53-12.5c0-6.88 5.64-12.5 12.53-12.5zm5 9.92c.48-.31.94-.78 1.41-1.4-.47.15-.93.3-1.48.39a2.5 2.5 0 0 0 1.1-1.41c-.48.31-1.1.55-1.65.63a2.6 2.6 0 0 0-4.46 1.8c0 .15 0 .38.08.54a7.08 7.08 0 0 1-5.33-2.66c-.15.4-.31.86-.31 1.33 0 .86.47 1.64 1.17 2.11a2.6 2.6 0 0 1-1.17-.31c0 1.25.86 2.26 2.03 2.5-.23.08-.47.08-.7.08-.16 0-.31-.08-.47-.08.4 1.01 1.33 1.8 2.43 1.8-.86.7-2.04 1.09-3.21 1.09h-.63a6.62 6.62 0 0 0 3.92 1.17c4.7 0 7.28-3.9 7.28-7.27v-.3z"/></defs><g><g  transform="translate(-1192 -748)"><g ><g ><use fill="#6b7c93" xlink:href="#ztoya"/></g></g></g></g></svg>